HIERARCHY
ROOT Hips
{
 OFFSET 0.000000 0.000000 0.000000
 CHANNELS 6 Xposition Yposition Zposition Yrotation Xrotation Zrotation
 JOINT Chest
 {
  OFFSET 0.000000 9.585900 0.002600
  CHANNELS 3 Yrotation Xrotation Zrotation
  JOINT Chest2
  {
   OFFSET 0.000000 9.601200 -0.005300
   CHANNELS 3 Yrotation Xrotation Zrotation
   JOINT Chest3
   {
    OFFSET 0.000000 9.561800 0.000000
    CHANNELS 3 Yrotation Xrotation Zrotation
    JOINT Chest4
    {
     OFFSET 0.000000 9.552100 0.000000
     CHANNELS 3 Yrotation Xrotation Zrotation
     JOINT Neck
     {
      OFFSET 0.000000 14.453000 0.000000
      CHANNELS 3 Yrotation Xrotation Zrotation
      JOINT Head
      {
       OFFSET 0.000000 8.936500 -0.011300
       CHANNELS 3 Yrotation Xrotation Zrotation
       End Site
       {
        OFFSET 0.000000 17.073600 -0.006000
       }
      }
     }
     JOINT RightCollar
     {
      OFFSET -2.921100 9.558500 0.000000
      CHANNELS 3 Yrotation Xrotation Zrotation
      JOINT RightShoulder
      {
       OFFSET -13.519700 0.000000 0.000000
       CHANNELS 3 Yrotation Xrotation Zrotation
       JOINT RightElbow
       {
        OFFSET 0.000000 -29.696600 0.000000
        CHANNELS 3 Yrotation Xrotation Zrotation
        JOINT RightWrist
        {
         OFFSET 0.000000 -24.004700 0.000000
         CHANNELS 3 Yrotation Xrotation Zrotation
         End Site
         {
          OFFSET 0.000000 -17.728500 0.000000
         }
        }
       }
      }
     }
     JOINT LeftCollar
     {
      OFFSET 2.921100 9.558500 0.000000
      CHANNELS 3 Yrotation Xrotation Zrotation
      JOINT LeftShoulder
      {
       OFFSET 13.519700 0.000000 0.000000
       CHANNELS 3 Yrotation Xrotation Zrotation
       JOINT LeftElbow
       {
        OFFSET 0.000000 -29.696600 0.000000
        CHANNELS 3 Yrotation Xrotation Zrotation
        JOINT LeftWrist
        {
         OFFSET 0.000000 -24.004700 0.000000
         CHANNELS 3 Yrotation Xrotation Zrotation
         End Site
         {
          OFFSET 0.000000 -17.728500 0.000000
         }
        }
       }
      }
     }
    }
   }
  }
 }
 JOINT RightHip
 {
  OFFSET -7.771700 -0.012900 -0.001300
  CHANNELS 3 Yrotation Xrotation Zrotation
  JOINT RightKnee
  {
   OFFSET 0.000000 -40.869800 0.001200
   CHANNELS 3 Yrotation Xrotation Zrotation
   JOINT RightAnkle
   {
    OFFSET 0.000000 -39.717900 0.002100
    CHANNELS 3 Yrotation Xrotation Zrotation
    JOINT RightToe
    {
     OFFSET 0.000000 -4.965400 11.033500
     CHANNELS 3 Yrotation Xrotation Zrotation
     End Site
     {
      OFFSET 0.000000 -1.423100 5.872300
     }
    }
   }
  }
 }
 JOINT LeftHip
 {
  OFFSET 7.771700 -0.012900 -0.001300
  CHANNELS 3 Yrotation Xrotation Zrotation
  JOINT LeftKnee
  {
   OFFSET 0.000000 -40.869800 0.001200
   CHANNELS 3 Yrotation Xrotation Zrotation
   JOINT LeftAnkle
   {
    OFFSET 0.000000 -39.717900 0.002100
    CHANNELS 3 Yrotation Xrotation Zrotation
    JOINT LeftToe
    {
     OFFSET 0.000000 -4.965400 11.033500
     CHANNELS 3 Yrotation Xrotation Zrotation
     End Site
     {
      OFFSET 0.000000 -1.423100 5.872300
     }
    }
   }
  }
 }
}
MOTION
Frames: 7
Frame Time: 0.008333
0.000000 85.388000 0.000000 0.000000 -5.767877 0.000000 0.000000 11.653817 0.000000 0.000000 -5.885947 0.000000 0.000000 -0.000000 0.000000 0.000000 -0.000000 0.000000 0.000000 12.528835 0.000000 0.000000 0.711642 0.000000 0.000000 -0.000000 0.000000 0.000000 0.000000 -90.000000 0.000000 -2.309062 0.000000 0.000000 2.309062 0.000000 0.000000 -0.000000 0.000000 0.000000 -0.000000 90.000000 0.000000 -2.309062 0.000000 0.000000 2.309062 0.000000 0.000000 8.520406 0.000000 0.000000 1.905762 0.000000 -0.000000 -4.658285 0.000000 0.000000 -0.000000 0.000000 0.000000 8.520406 0.000000 0.000000 1.905762 0.000000 -0.000000 -4.658285 0.000000 0.000000 -0.000000 0.000000
-122.049740 47.071104 -39.466943 173.560643 -27.116981 -5.112163 0.447717 13.065409 2.011959 0.017265 1.043756 0.161017 0.057097 1.788185 0.287494 0.344757 11.807899 1.855296 6.619667 16.659573 3.862970 10.920853 -4.900834 4.857989 -5.990329 0.641303 -2.236683 -6.571518 -3.685809 -15.653808 -43.560112 -44.931439 89.387470 -6.368761 -6.213098 -2.133891 2.537611 -1.772474 3.193976 10.177699 1.002171 11.524988 51.647720 -40.754978 -85.954010 12.443372 -4.432903 -3.297991 -6.763295 -58.020180 2.803190 -163.214873 78.266380 -152.844011 -11.049468 -15.257321 -6.549778 -0.005447 -0.090132 -0.025248 -4.868134 -61.789158 17.769221 -116.262179 84.096485 -119.658504 7.234686 -5.829907 4.609426 -0.024536 0.064049 -0.043076
-122.047205 47.072822 -39.465052 173.546670 -27.159598 -5.116803 0.439354 13.083353 2.002377 0.017424 1.047723 0.161322 0.056920 1.795231 0.288138 0.346199 11.827706 1.854401 6.604202 16.656899 3.870277 10.889687 -4.906510 4.876683 -5.998974 0.672099 -2.237456 -6.553861 -3.707790 -15.603582 -43.583069 -44.925925 89.384188 -6.367456 -6.219394 -2.148978 2.552328 -1.778070 3.193999 10.132679 1.002530 11.529773 51.647232 -40.761771 -86.009358 12.451224 -4.478255 -3.217280 -6.737047 -57.975930 2.821249 -163.132997 78.270422 -152.760905 -11.088209 -15.227804 -6.482341 -0.025140 -0.092620 -0.044089 -4.847549 -61.757133 17.749018 -116.047964 84.050583 -119.424314 7.303826 -5.809334 4.624225 -0.023222 0.052105 -0.054613
-122.044488 47.073965 -39.461317 173.531517 -27.197703 -5.115234 0.436192 13.103073 1.991169 0.010925 1.046778 0.156648 0.059498 1.799541 0.292032 0.347287 11.850832 1.848747 6.586891 16.654031 3.878688 10.876158 -4.912080 4.890042 -5.979398 0.670255 -2.226319 -6.563137 -3.694906 -15.533388 -43.606596 -44.927955 89.352275 -6.340774 -6.206055 -2.151245 2.563683 -1.786880 3.196416 10.126419 1.002460 11.538523 51.610423 -40.776767 -86.075312 12.470461 -4.494319 -3.169433 -6.704552 -57.937237 2.837034 -163.068045 78.280564 -152.698698 -11.156326 -15.197241 -6.395448 -0.033257 -0.093522 -0.067422 -4.799929 -61.744532 17.684389 -116.062553 84.024335 -119.404518 7.398008 -5.776949 4.634442 -0.051447 0.028639 -0.069444
-122.036790 47.076354 -39.458109 173.512429 -27.249922 -5.129373 0.455766 13.147967 2.008982 -0.009792 1.035799 0.141592 0.059810 1.803508 0.293932 0.352743 11.875145 1.845382 6.567649 16.650206 3.887698 10.837371 -4.920124 4.913067 -5.977859 0.679166 -2.221253 -6.541604 -3.707787 -15.504171 -43.619139 -44.922808 89.342002 -6.341785 -6.215936 -2.169238 2.514658 -1.783633 3.172819 10.123698 0.982348 11.570267 51.611337 -40.794415 -86.126842 12.459916 -4.455586 -3.190026 -6.684762 -57.876068 2.895969 -162.880486 78.286782 -152.509102 -11.270131 -15.175652 -6.237517 0.011873 -0.094250 -0.141247 -4.798672 -61.703009 17.704694 -115.925054 83.989498 -119.253644 7.456929 -5.743935 4.638685 -0.064508 0.006489 -0.069881
-122.026081 47.078681 -39.453649 173.493684 -27.299969 -5.146793 0.454431 13.176924 2.010352 -0.012198 1.039126 0.139638 0.064356 1.812257 0.296452 0.368635 11.889492 1.852706 6.527177 16.650460 3.888877 10.775537 -4.930403 4.945365 -6.012495 0.705214 -2.240118 -6.496788 -3.733638 -15.457627 -43.619671 -44.925138 89.322799 -6.341384 -6.220429 -2.179541 2.483675 -1.779096 3.158461 10.038019 0.959999 11.584815 51.643127 -40.812965 -86.162689 12.454799 -4.460149 -3.161054 -6.680815 -57.811595 2.967998 -162.654474 78.286728 -152.279727 -11.329622 -15.181094 -6.133860 0.025850 -0.075487 -0.173571 -4.813654 -61.655791 17.747848 -115.761501 83.962519 -119.083103 7.498023 -5.729914 4.636311 -0.068649 0.003258 -0.066556
-122.011734 47.080500 -39.447010 173.497352 -27.339209 -5.178804 0.397672 13.174793 1.982731 0.018475 1.064215 0.161554 0.065981 1.820459 0.296878 0.386481 11.904672 1.862276 6.482545 16.649425 3.888396 10.787364 -4.934380 4.953529 -6.027522 0.716129 -2.244473 -6.467321 -3.743226 -15.409138 -43.600561 -44.948404 89.287582 -6.340881 -6.221164 -2.181019 2.454382 -1.772492 3.140861 9.975556 0.937721 11.603616 51.647641 -40.849822 -86.204816 12.446212 -4.458038 -3.140037 -6.762640 -57.740631 3.126600 -162.249118 78.288275 -151.894643 -11.402421 -15.220350 -6.102168 0.075690 -0.033206 -0.130325 -4.856467 -61.625207 17.798990 -115.736134 83.950282 -119.045528 7.557394 -5.725793 4.640582 -0.109749 0.004449 -0.079553
